<svg version="1.1" viewBox="0.0 0.0 883.0 546.0" fill="none" stroke="none" stroke-linecap="square" stroke-miterlimit="10" width="883" height="546" xmlns:xlink="http://www.w3.org/1999/xlink" xmlns="http://www.w3.org/2000/svg"><path fill="#ffffff" d="M0 0L883.0 0L883.0 546.0L0 546.0L0 0Z" fill-rule="nonzero"/><path stroke="#cccccc" stroke-width="1.0" stroke-linecap="butt" d="M295.5 108.5L295.5 466.5" fill-rule="nonzero"/><path stroke="#cccccc" stroke-width="1.0" stroke-linecap="butt" d="M482.5 108.5L482.5 466.5" fill-rule="nonzero"/><path stroke="#cccccc" stroke-width="1.0" stroke-linecap="butt" d="M668.5 108.5L668.5 466.5" fill-rule="nonzero"/><path stroke="#cccccc" stroke-width="1.0" stroke-linecap="butt" d="M855.5 108.5L855.5 466.5" fill-rule="nonzero"/><path stroke="#333333" stroke-width="1.0" stroke-linecap="butt" d="M110.5 466.5L855.5 466.5" fill-rule="nonzero"/><path stroke="#cccccc" stroke-width="1.0" stroke-linecap="butt" d="M110.5 347.5L855.5 347.5" fill-rule="nonzero"/><path stroke="#cccccc" stroke-width="1.0" stroke-linecap="butt" d="M110.5 228.5L855.5 228.5" fill-rule="nonzero"/><path stroke="#cccccc" stroke-width="1.0" stroke-linecap="butt" d="M110.5 108.5L855.5 108.5" fill-rule="nonzero"/><clipPath id="id_0"><path d="M110.3 108.7L855.7 108.7L855.7 466.7L110.3 466.7L110.3 108.7Z" clip-rule="nonzero"/></clipPath><path stroke="#4285f4" stroke-width="2.0" stroke-linecap="butt" clip-path="url(#id_0)" d="M110.3 115.42921L117.77268 130.3757L201.84035 155.64455L575.4744 188.97314L855.7 209.86006" fill-rule="nonzero"/><path stroke="#ea4335" stroke-width="2.0" stroke-linecap="butt" clip-path="url(#id_0)" d="M110.3 117.46384L117.77268 113.8373L201.84035 195.6761L575.4744 234.06563L855.7 241.73161" fill-rule="nonzero"/><path fill="#000000" fill-opacity="0.0" clip-path="url(#id_0)" d="M113.3 115.42921C113.3 117.08606 111.956856 118.42921 110.3 118.42921C108.64314 118.42921 107.3 117.08606 107.3 115.42921C107.3 113.772354 108.64314 112.42921 110.3 112.42921C111.956856 112.42921 113.3 113.772354 113.3 115.42921Z" fill-rule="nonzero"/><path fill="#000000" fill-opacity="0.0" clip-path="url(#id_0)" d="M120.77268 130.3757C120.77268 132.03256 119.429535 133.3757 117.77268 133.3757C116.11583 133.3757 114.77268 132.03256 114.77268 130.3757C114.77268 128.71886 116.11583 127.37571 117.77268 127.37571C119.429535 127.37571 120.77268 128.71886 120.77268 130.3757Z" fill-rule="nonzero"/><path fill="#000000" fill-opacity="0.0" clip-path="url(#id_0)" d="M204.84035 155.64455C204.84035 157.30139 203.49721 158.64455 201.84035 158.64455C200.1835 158.64455 198.84035 157.30139 198.84035 155.64455C198.84035 153.98769 200.1835 152.64455 201.84035 152.64455C203.49721 152.64455 204.84035 153.98769 204.84035 155.64455Z" fill-rule="nonzero"/><path fill="#000000" fill-opacity="0.0" clip-path="url(#id_0)" d="M578.4744 188.97314C578.4744 190.63 577.1313 191.97314 575.4744 191.97314C573.81757 191.97314 572.4744 190.63 572.4744 188.97314C572.4744 187.3163 573.81757 185.97314 575.4744 185.97314C577.1313 185.97314 578.4744 187.3163 578.4744 188.97314Z" fill-rule="nonzero"/><path fill="#000000" fill-opacity="0.0" clip-path="url(#id_0)" d="M858.7 209.86006C858.7 211.5169 857.3569 212.86006 855.7 212.86006C854.04315 212.86006 852.7 211.5169 852.7 209.86006C852.7 208.2032 854.04315 206.86006 855.7 206.86006C857.3569 206.86006 858.7 208.2032 858.7 209.86006Z" fill-rule="nonzero"/><path fill="#000000" fill-opacity="0.0" clip-path="url(#id_0)" d="M113.3 117.46384C113.3 119.1207 111.956856 120.46384 110.3 120.46384C108.64314 120.46384 107.3 119.1207 107.3 117.46384C107.3 115.806984 108.64314 114.46384 110.3 114.46384C111.956856 114.46384 113.3 115.806984 113.3 117.46384Z" fill-rule="nonzero"/><path fill="#000000" fill-opacity="0.0" clip-path="url(#id_0)" d="M120.77268 113.8373C120.77268 115.494156 119.429535 116.8373 117.77268 116.8373C116.11583 116.8373 114.77268 115.494156 114.77268 113.8373C114.77268 112.18044 116.11583 110.8373 117.77268 110.8373C119.429535 110.8373 120.77268 112.18044 120.77268 113.8373Z" fill-rule="nonzero"/><path fill="#000000" fill-opacity="0.0" clip-path="url(#id_0)" d="M204.84035 195.6761C204.84035 197.33295 203.49721 198.6761 201.84035 198.6761C200.1835 198.6761 198.84035 197.33295 198.84035 195.6761C198.84035 194.01924 200.1835 192.6761 201.84035 192.6761C203.49721 192.6761 204.84035 194.01924 204.84035 195.6761Z" fill-rule="nonzero"/><path fill="#000000" fill-opacity="0.0" clip-path="url(#id_0)" d="M578.4744 234.06563C578.4744 235.72249 577.1313 237.06563 575.4744 237.06563C573.81757 237.06563 572.4744 235.72249 572.4744 234.06563C572.4744 232.40878 573.81757 231.06563 575.4744 231.06563C577.1313 231.06563 578.4744 232.40878 578.4744 234.06563Z" fill-rule="nonzero"/><path fill="#000000" fill-opacity="0.0" clip-path="url(#id_0)" d="M858.7 241.73161C858.7 243.38846 857.3569 244.73161 855.7 244.73161C854.04315 244.73161 852.7 243.38846 852.7 241.73161C852.7 240.07475 854.04315 238.73161 855.7 238.73161C857.3569 238.73161 858.7 240.07475 858.7 241.73161Z" fill-rule="nonzero"/><path fill="#000000" d="M455.0625 512.6844L456.1875 512.98126Q455.82812 514.3719 454.90625 515.10626Q453.98438 515.84064 452.64062 515.84064Q451.25 515.84064 450.375 515.27814Q449.5 514.71564 449.04688 513.65314Q448.59375 512.575 448.59375 511.34064Q448.59375 509.9969 449.10938 508.9969Q449.625 507.9969 450.5625 507.48126Q451.51562 506.96564 452.65625 506.96564Q453.9375 506.96564 454.8125 507.6219Q455.70312 508.27814 456.04688 509.46564L454.92188 509.73126Q454.625 508.79376 454.04688 508.3719Q453.48438 507.9344 452.625 507.9344Q451.64062 507.9344 450.96875 508.41876Q450.3125 508.8875 450.03125 509.6844Q449.76562 510.48126 449.76562 511.34064Q449.76562 512.4344 450.07812 513.2469Q450.40625 514.0594 451.07812 514.46564Q451.75 514.8719 452.54688 514.8719Q453.5 514.8719 454.15625 514.325Q454.82812 513.77814 455.0625 512.6844ZM457.40625 512.59064Q457.40625 510.85626 458.35938 510.02814Q459.15625 509.34064 460.3125 509.34064Q461.59375 509.34064 462.40625 510.1844Q463.23438 511.0125 463.23438 512.4969Q463.23438 513.7 462.875 514.3875Q462.51562 515.075 461.8125 515.46564Q461.125 515.84064 460.3125 515.84064Q459.01562 515.84064 458.20312 515.0125Q457.40625 514.16876 457.40625 512.59064ZM458.48438 512.59064Q458.48438 513.77814 459.0 514.3719Q459.53125 514.96564 460.3125 514.96564Q461.10938 514.96564 461.625 514.3719Q462.14062 513.77814 462.14062 512.5594Q462.14062 511.40314 461.60938 510.8094Q461.09375 510.21564 460.3125 510.21564Q459.53125 510.21564 459.0 510.8094Q458.48438 511.3875 458.48438 512.59064ZM464.79688 515.7L464.79688 509.48126L465.73438 509.48126L465.73438 510.35626Q466.42188 509.34064 467.71875 509.34064Q468.28125 509.34064 468.75 509.54376Q469.23438 509.7469 469.46875 510.075Q469.70312 510.40314 469.79688 510.84064Q469.84375 511.1375 469.84375 511.8719L469.84375 515.7L468.79688 515.7L468.79688 511.91876Q468.79688 511.2625 468.67188 510.95Q468.54688 510.6375 468.23438 510.45Q467.92188 510.2469 467.5 510.2469Q466.82812 510.2469 466.32812 510.6844Q465.84375 511.10626 465.84375 512.29376L465.84375 515.7L464.79688 515.7ZM471.79688 515.7L471.79688 509.48126L472.73438 509.48126L472.73438 510.35626Q473.42188 509.34064 474.71875 509.34064Q475.28125 509.34064 475.75 509.54376Q476.23438 509.7469 476.46875 510.075Q476.70312 510.40314 476.79688 510.84064Q476.84375 511.1375 476.84375 511.8719L476.84375 515.7L475.79688 515.7L475.79688 511.91876Q475.79688 511.2625 475.67188 510.95Q475.54688 510.6375 475.23438 510.45Q474.92188 510.2469 474.5 510.2469Q473.82812 510.2469 473.32812 510.6844Q472.84375 511.10626 472.84375 512.29376L472.84375 515.7L471.79688 515.7ZM483.04688 513.7L484.14062 513.825Q483.89062 514.77814 483.1875 515.3094Q482.48438 515.84064 481.40625 515.84064Q480.04688 515.84064 479.23438 514.9969Q478.4375 514.15314 478.4375 512.6375Q478.4375 511.075 479.25 510.21564Q480.0625 509.34064 481.34375 509.34064Q482.59375 509.34064 483.375 510.1844Q484.17188 511.02814 484.17188 512.575Q484.17188 512.66876 484.17188 512.85626L479.53125 512.85626Q479.59375 513.8875 480.10938 514.4344Q480.625 514.96564 481.40625 514.96564Q481.98438 514.96564 482.39062 514.66876Q482.8125 514.35626 483.04688 513.7ZM479.59375 511.9969L483.0625 511.9969Q483.0 511.2 482.67188 510.8094Q482.15625 510.2 481.35938 510.2Q480.625 510.2 480.125 510.6844Q479.64062 511.16876 479.59375 511.9969ZM489.85938 513.41876L490.89062 513.5594Q490.71875 514.6219 490.01562 515.23126Q489.3125 515.84064 488.29688 515.84064Q487.01562 515.84064 486.23438 515.0125Q485.46875 514.16876 485.46875 512.60626Q485.46875 511.60626 485.79688 510.85626Q486.14062 510.09064 486.8125 509.71564Q487.5 509.34064 488.3125 509.34064Q489.3125 509.34064 489.95312 509.85626Q490.60938 510.35626 490.79688 511.3094L489.76562 511.46564Q489.625 510.84064 489.25 510.52814Q488.875 510.2 488.34375 510.2Q487.54688 510.2 487.04688 510.77814Q486.54688 511.34064 486.54688 512.575Q486.54688 513.84064 487.03125 514.40314Q487.51562 514.96564 488.28125 514.96564Q488.90625 514.96564 489.3125 514.59064Q489.73438 514.21564 489.85938 513.41876ZM494.09375 514.7625L494.25 515.6844Q493.79688 515.77814 493.45312 515.77814Q492.875 515.77814 492.5625 515.60626Q492.25 515.41876 492.10938 515.1219Q491.98438 514.825 491.98438 513.8719L491.98438 510.29376L491.21875 510.29376L491.21875 509.48126L491.98438 509.48126L491.98438 507.9344L493.03125 507.3094L493.03125 509.48126L494.09375 509.48126L494.09375 510.29376L493.03125 510.29376L493.03125 513.9344Q493.03125 514.3875 493.07812 514.5125Q493.14062 514.6375 493.26562 514.71564Q493.39062 514.79376 493.625 514.79376Q493.8125 514.79376 494.09375 514.7625ZM494.79688 508.325L494.79688 507.10626L495.85938 507.10626L495.85938 508.325L494.79688 508.325ZM494.79688 515.7L494.79688 509.48126L495.85938 509.48126L495.85938 515.7L494.79688 515.7ZM497.40625 512.59064Q497.40625 510.85626 498.35938 510.02814Q499.15625 509.34064 500.3125 509.34064Q501.59375 509.34064 502.40625 510.1844Q503.23438 511.0125 503.23438 512.4969Q503.23438 513.7 502.875 514.3875Q502.51562 515.075 501.8125 515.46564Q501.125 515.84064 500.3125 515.84064Q499.01562 515.84064 498.20312 515.0125Q497.40625 514.16876 497.40625 512.59064ZM498.48438 512.59064Q498.48438 513.77814 499.0 514.3719Q499.53125 514.96564 500.3125 514.96564Q501.10938 514.96564 501.625 514.3719Q502.14062 513.77814 502.14062 512.5594Q502.14062 511.40314 501.60938 510.8094Q501.09375 510.21564 500.3125 510.21564Q499.53125 510.21564 499.0 510.8094Q498.48438 511.3875 498.48438 512.59064ZM504.79688 515.7L504.79688 509.48126L505.73438 509.48126L505.73438 510.35626Q506.42188 509.34064 507.71875 509.34064Q508.28125 509.34064 508.75 509.54376Q509.23438 509.7469 509.46875 510.075Q509.70312 510.40314 509.79688 510.84064Q509.84375 511.1375 509.84375 511.8719L509.84375 515.7L508.79688 515.7L508.79688 511.91876Q508.79688 511.2625 508.67188 510.95Q508.54688 510.6375 508.23438 510.45Q507.92188 510.2469 507.5 510.2469Q506.82812 510.2469 506.32812 510.6844Q505.84375 511.10626 505.84375 512.29376L505.84375 515.7L504.79688 515.7ZM511.375 513.84064L512.40625 513.6844Q512.5 514.3094 512.8906 514.6375Q513.2969 514.96564 514.03125 514.96564Q514.75 514.96564 515.09375 514.6844Q515.4531 514.3875 515.4531 513.98126Q515.4531 513.6219 515.1406 513.41876Q514.9219 513.27814 514.0625 513.0594Q512.90625 512.7625 512.4531 512.5594Q512.0156 512.34064 511.78125 511.96564Q511.54688 511.59064 511.54688 511.1219Q511.54688 510.71564 511.73438 510.35626Q511.92188 509.9969 512.25 509.7625Q512.5 509.59064 512.9219 509.46564Q513.34375 509.34064 513.84375 509.34064Q514.5625 509.34064 515.1094 509.5594Q515.6719 509.7625 515.9375 510.1219Q516.2031 510.48126 516.2969 511.075L515.2656 511.21564Q515.2031 510.7469 514.8594 510.48126Q514.53125 510.2 513.90625 510.2Q513.1875 510.2 512.875 510.45Q512.5625 510.6844 512.5625 511.0125Q512.5625 511.21564 512.6875 511.3719Q512.8281 511.54376 513.09375 511.65314Q513.25 511.71564 514.03125 511.91876Q515.15625 512.23126 515.59375 512.41876Q516.03125 512.60626 516.28125 512.96564Q516.53125 513.325 516.53125 513.8719Q516.53125 514.40314 516.21875 514.8719Q515.9219 515.325 515.34375 515.59064Q514.7656 515.84064 514.03125 515.84064Q512.8125 515.84064 512.1719 515.34064Q511.54688 514.825 511.375 513.84064Z" fill-rule="nonzero"/><path fill="#000000" d="M38.30001 352.7625L29.706263 352.7625L29.706263 348.95Q29.706263 347.79376 29.940638 347.2Q30.175013 346.60626 30.768763 346.2469Q31.346888 345.8875 32.05001 345.8875Q32.971886 345.8875 33.596886 346.48126Q34.221886 347.075 34.39376 348.3094Q34.61251 347.85626 34.815636 347.6219Q35.26876 347.1219 35.95626 346.6844L38.30001 345.1844L38.30001 346.6219L36.51876 347.7469Q35.73751 348.2469 35.33126 348.575Q34.92501 348.8875 34.76876 349.15314Q34.596886 349.40314 34.51876 349.66876Q34.48751 349.85626 34.48751 350.29376L34.48751 351.6219L38.30001 351.6219L38.30001 352.7625ZM33.503136 351.6219L33.503136 349.16876Q33.503136 348.40314 33.346886 347.96564Q33.17501 347.5125 32.83126 347.29376Q32.471886 347.0594 32.05001 347.0594Q31.440638 347.0594 31.050013 347.5125Q30.659388 347.95 30.659388 348.90314L30.659388 351.6219L33.503136 351.6219ZM36.30001 339.65314L36.42501 338.5594Q37.378136 338.8094 37.909386 339.5125Q38.440636 340.21564 38.440636 341.29376Q38.440636 342.65314 37.596886 343.46564Q36.753136 344.2625 35.23751 344.2625Q33.67501 344.2625 32.815636 343.45Q31.940638 342.6375 31.940638 341.35626Q31.940638 340.10626 32.784386 339.325Q33.628136 338.52814 35.17501 338.52814Q35.26876 338.52814 35.45626 338.52814L35.45626 343.16876Q36.48751 343.10626 37.034386 342.59064Q37.565636 342.075 37.565636 341.29376Q37.565636 340.71564 37.26876 340.3094Q36.95626 339.8875 36.30001 339.65314ZM34.596886 343.10626L34.596886 339.6375Q33.80001 339.7 33.409386 340.02814Q32.80001 340.54376 32.80001 341.34064Q32.80001 342.075 33.284386 342.575Q33.76876 343.0594 34.596886 343.10626ZM40.690636 332.9344L37.64376 332.9344Q37.98751 333.1844 38.221886 333.6375Q38.440636 334.075 38.440636 334.575Q38.440636 335.6844 37.565636 336.48126Q36.67501 337.27814 35.128136 337.27814Q34.190636 337.27814 33.45626 336.95Q32.70626 336.6219 32.33126 336.0125Q31.940638 335.3875 31.940638 334.65314Q31.940638 333.4969 32.909386 332.84064L32.08126 332.84064L32.08126 331.8875L40.690636 331.8875L40.690636 332.9344ZM35.17501 336.2Q36.378136 336.2 36.971886 335.7Q37.565636 335.1844 37.565636 334.48126Q37.565636 333.8094 37.003136 333.325Q36.42501 332.84064 35.26876 332.84064Q34.01876 332.84064 33.39376 333.35626Q32.76876 333.85626 32.76876 334.5594Q32.76876 335.23126 33.36251 335.71564Q33.940636 336.2 35.17501 336.2ZM38.30001 325.825L37.378136 325.825Q38.440636 326.5594 38.440636 327.8094Q38.440636 328.35626 38.23751 328.84064Q38.01876 329.3094 37.70626 329.54376Q37.378136 329.77814 36.909386 329.8719Q36.61251 329.9344 35.92501 329.9344L32.08126 329.9344L32.08126 328.8719L35.534386 328.8719Q36.346886 328.8719 36.64376 328.8094Q37.05001 328.71564 37.30001 328.40314Q37.534386 328.075 37.534386 327.59064Q37.534386 327.1219 37.30001 326.71564Q37.05001 326.29376 36.628136 326.1219Q36.20626 325.9344 35.409386 325.9344L32.08126 325.9344L32.08126 324.8875L38.30001 324.8875L38.30001 325.825ZM36.30001 318.65314L36.42501 317.5594Q37.378136 317.8094 37.909386 318.5125Q38.440636 319.21564 38.440636 320.29376Q38.440636 321.65314 37.596886 322.46564Q36.753136 323.2625 35.23751 323.2625Q33.67501 323.2625 32.815636 322.45Q31.940638 321.6375 31.940638 320.35626Q31.940638 319.10626 32.784386 318.325Q33.628136 317.52814 35.17501 317.52814Q35.26876 317.52814 35.45626 317.52814L35.45626 322.16876Q36.48751 322.10626 37.034386 321.59064Q37.565636 321.075 37.565636 320.29376Q37.565636 319.71564 37.26876 319.3094Q36.95626 318.8875 36.30001 318.65314ZM34.596886 322.10626L34.596886 318.6375Q33.80001 318.7 33.409386 319.02814Q32.80001 319.54376 32.80001 320.34064Q32.80001 321.075 33.284386 321.575Q33.76876 322.0594 34.596886 322.10626ZM36.440636 316.325L36.284386 315.29376Q36.909386 315.2 37.23751 314.8094Q37.565636 314.40314 37.565636 313.66876Q37.565636 312.95 37.284386 312.60626Q36.98751 312.2469 36.58126 312.2469Q36.221886 312.2469 36.01876 312.5594Q35.878136 312.77814 35.659386 313.6375Q35.36251 314.79376 35.159386 315.2469Q34.940636 315.6844 34.565636 315.91876Q34.190636 316.15314 33.721886 316.15314Q33.315636 316.15314 32.95626 315.96564Q32.596886 315.77814 32.36251 315.45Q32.190636 315.2 32.065636 314.77814Q31.940638 314.35626 31.940638 313.85626Q31.940638 313.1375 32.159386 312.59064Q32.36251 312.02814 32.721886 311.7625Q33.08126 311.4969 33.67501 311.40314L33.815636 312.4344Q33.346886 312.4969 33.08126 312.84064Q32.80001 313.16876 32.80001 313.79376Q32.80001 314.5125 33.05001 314.825Q33.284386 315.1375 33.61251 315.1375Q33.815636 315.1375 33.971886 315.0125Q34.14376 314.8719 34.253136 314.60626Q34.315636 314.45 34.51876 313.66876Q34.83126 312.54376 35.01876 312.10626Q35.20626 311.66876 35.565636 311.41876Q35.92501 311.16876 36.471886 311.16876Q37.003136 311.16876 37.471886 311.48126Q37.92501 311.77814 38.190636 312.35626Q38.440636 312.9344 38.440636 313.66876Q38.440636 314.8875 37.940636 315.52814Q37.42501 316.15314 36.440636 316.325ZM37.36251 306.60626L38.284386 306.45Q38.378136 306.90314 38.378136 307.2469Q38.378136 307.825 38.20626 308.1375Q38.01876 308.45 37.721886 308.59064Q37.42501 308.71564 36.471886 308.71564L32.89376 308.71564L32.89376 309.48126L32.08126 309.48126L32.08126 308.71564L30.534388 308.71564L29.909388 307.66876L32.08126 307.66876L32.08126 306.60626L32.89376 306.60626L32.89376 307.66876L36.534386 307.66876Q36.98751 307.66876 37.11251 307.6219Q37.23751 307.5594 37.315636 307.4344Q37.39376 307.3094 37.39376 307.075Q37.39376 306.8875 37.36251 306.60626ZM36.440636 306.325L36.284386 305.29376Q36.909386 305.2 37.23751 304.8094Q37.565636 304.40314 37.565636 303.66876Q37.565636 302.95 37.284386 302.60626Q36.98751 302.2469 36.58126 302.2469Q36.221886 302.2469 36.01876 302.5594Q35.878136 302.77814 35.659386 303.6375Q35.36251 304.79376 35.159386 305.2469Q34.940636 305.6844 34.565636 305.91876Q34.190636 306.15314 33.721886 306.15314Q33.315636 306.15314 32.95626 305.96564Q32.596886 305.77814 32.36251 305.45Q32.190636 305.2 32.065636 304.77814Q31.940638 304.35626 31.940638 303.85626Q31.940638 303.1375 32.159386 302.59064Q32.36251 302.02814 32.721886 301.7625Q33.08126 301.4969 33.67501 301.40314L33.815636 302.4344Q33.346886 302.4969 33.08126 302.84064Q32.80001 303.16876 32.80001 303.79376Q32.80001 304.5125 33.05001 304.825Q33.284386 305.1375 33.61251 305.1375Q33.815636 305.1375 33.971886 305.0125Q34.14376 304.8719 34.253136 304.60626Q34.315636 304.45 34.51876 303.66876Q34.83126 302.54376 35.01876 302.10626Q35.20626 301.66876 35.565636 301.41876Q35.92501 301.16876 36.471886 301.16876Q37.003136 301.16876 37.471886 301.48126Q37.92501 301.77814 38.190636 302.35626Q38.440636 302.9344 38.440636 303.66876Q38.440636 304.8875 37.940636 305.52814Q37.42501 306.15314 36.440636 306.325ZM40.690636 295.90314L32.08126 295.90314L32.08126 294.95L32.878136 294.95Q32.409386 294.60626 32.17501 294.1844Q31.940638 293.7469 31.940638 293.1375Q31.940638 292.34064 32.346886 291.73126Q32.753136 291.1219 33.503136 290.825Q34.253136 290.5125 35.14376 290.5125Q36.096886 290.5125 36.86251 290.85626Q37.628136 291.1844 38.034386 291.84064Q38.440636 292.4969 38.440636 293.21564Q38.440636 293.7469 38.221886 294.16876Q37.98751 294.59064 37.659386 294.85626L40.690636 294.85626L40.690636 295.90314ZM35.221886 294.95Q36.42501 294.95 37.003136 294.46564Q37.565636 293.98126 37.565636 293.29376Q37.565636 292.59064 36.971886 292.09064Q36.378136 291.59064 35.128136 291.59064Q33.940636 291.59064 33.36251 292.075Q32.76876 292.5594 32.76876 293.2469Q32.76876 293.91876 33.39376 294.4344Q34.01876 294.95 35.221886 294.95ZM36.30001 284.65314L36.42501 283.5594Q37.378136 283.8094 37.909386 284.5125Q38.440636 285.21564 38.440636 286.29376Q38.440636 287.65314 37.596886 288.46564Q36.753136 289.2625 35.23751 289.2625Q33.67501 289.2625 32.815636 288.45Q31.940638 287.6375 31.940638 286.35626Q31.940638 285.10626 32.784386 284.325Q33.628136 283.52814 35.17501 283.52814Q35.26876 283.52814 35.45626 283.52814L35.45626 288.16876Q36.48751 288.10626 37.034386 287.59064Q37.565636 287.075 37.565636 286.29376Q37.565636 285.71564 37.26876 285.3094Q36.95626 284.8875 36.30001 284.65314ZM34.596886 288.10626L34.596886 284.6375Q33.80001 284.7 33.409386 285.02814Q32.80001 285.54376 32.80001 286.34064Q32.80001 287.075 33.284386 287.575Q33.76876 288.0594 34.596886 288.10626ZM38.30001 281.91876L32.08126 281.91876L32.08126 280.96564L33.01876 280.96564Q32.36251 280.60626 32.159386 280.3094Q31.940638 279.9969 31.940638 279.6219Q31.940638 279.09064 32.26876 278.54376L33.253136 278.90314Q33.01876 279.29376 33.01876 279.66876Q33.01876 280.02814 33.23751 280.3094Q33.440636 280.575 33.815636 280.6844Q34.378136 280.8719 35.034386 280.8719L38.30001 280.8719L38.30001 281.91876ZM36.440636 275.325L36.284386 274.29376Q36.909386 274.2 37.23751 273.8094Q37.565636 273.40314 37.565636 272.66876Q37.565636 271.95 37.284386 271.60626Q36.98751 271.2469 36.58126 271.2469Q36.221886 271.2469 36.01876 271.5594Q35.878136 271.77814 35.659386 272.6375Q35.36251 273.79376 35.159386 274.2469Q34.940636 274.6844 34.565636 274.91876Q34.190636 275.15314 33.721886 275.15314Q33.315636 275.15314 32.95626 274.96564Q32.596886 274.77814 32.36251 274.45Q32.190636 274.2 32.065636 273.77814Q31.940638 273.35626 31.940638 272.85626Q31.940638 272.1375 32.159386 271.59064Q32.36251 271.02814 32.721886 270.7625Q33.08126 270.4969 33.67501 270.40314L33.815636 271.4344Q33.346886 271.4969 33.08126 271.84064Q32.80001 272.16876 32.80001 272.79376Q32.80001 273.5125 33.05001 273.825Q33.284386 274.1375 33.61251 274.1375Q33.815636 274.1375 33.971886 274.0125Q34.14376 273.8719 34.253136 273.60626Q34.315636 273.45 34.51876 272.66876Q34.83126 271.54376 35.01876 271.10626Q35.20626 270.66876 35.565636 270.41876Q35.92501 270.16876 36.471886 270.16876Q37.003136 270.16876 37.471886 270.48126Q37.92501 270.77814 38.190636 271.35626Q38.440636 271.9344 38.440636 272.66876Q38.440636 273.8875 37.940636 274.52814Q37.42501 275.15314 36.440636 275.325ZM36.30001 263.65314L36.42501 262.5594Q37.378136 262.8094 37.909386 263.5125Q38.440636 264.21564 38.440636 265.29376Q38.440636 266.65314 37.596886 267.46564Q36.753136 268.2625 35.23751 268.2625Q33.67501 268.2625 32.815636 267.45Q31.940638 266.6375 31.940638 265.35626Q31.940638 264.10626 32.784386 263.325Q33.628136 262.52814 35.17501 262.52814Q35.26876 262.52814 35.45626 262.52814L35.45626 267.16876Q36.48751 267.10626 37.034386 266.59064Q37.565636 266.075 37.565636 265.29376Q37.565636 264.71564 37.26876 264.3094Q36.95626 263.8875 36.30001 263.65314ZM34.596886 267.10626L34.596886 263.6375Q33.80001 263.7 33.409386 264.02814Q32.80001 264.54376 32.80001 265.34064Q32.80001 266.075 33.284386 266.575Q33.76876 267.0594 34.596886 267.10626ZM36.01876 256.84064L36.159386 255.80939Q37.221886 255.98126 37.83126 256.6844Q38.440636 257.3875 38.440636 258.40314Q38.440636 259.6844 37.61251 260.46564Q36.76876 261.23126 35.20626 261.23126Q34.20626 261.23126 33.45626 260.90314Q32.690636 260.5594 32.315636 259.8875Q31.940638 259.2 31.940638 258.3875Q31.940638 257.3875 32.45626 256.7469Q32.95626 256.09064 33.909386 255.90314L34.065636 256.9344Q33.440636 257.075 33.128136 257.45Q32.80001 257.825 32.80001 258.35626Q32.80001 259.15314 33.378136 259.65314Q33.940636 260.15314 35.17501 260.15314Q36.440636 260.15314 37.003136 259.66876Q37.565636 259.1844 37.565636 258.41876Q37.565636 257.79376 37.190636 257.3875Q36.815636 256.96564 36.01876 256.84064ZM35.190636 255.29376Q33.45626 255.29376 32.628136 254.34064Q31.940638 253.54376 31.940638 252.38751Q31.940638 251.10626 32.784386 250.29376Q33.61251 249.46564 35.096886 249.46564Q36.30001 249.46564 36.98751 249.82501Q37.67501 250.18439 38.065636 250.88751Q38.440636 251.57501 38.440636 252.38751Q38.440636 253.68439 37.61251 254.49689Q36.76876 255.29376 35.190636 255.29376ZM35.190636 254.21564Q36.378136 254.21564 36.971886 253.70001Q37.565636 253.16876 37.565636 252.38751Q37.565636 251.59064 36.971886 251.07501Q36.378136 250.55939 35.159386 250.55939Q34.003136 250.55939 33.409386 251.09064Q32.815636 251.60626 32.815636 252.38751Q32.815636 253.16876 33.409386 253.70001Q33.98751 254.21564 35.190636 254.21564ZM38.30001 247.90314L32.08126 247.90314L32.08126 246.96564L32.95626 246.96564Q31.940638 246.27814 31.940638 244.98126Q31.940638 244.41876 32.14376 243.95001Q32.346886 243.46564 32.67501 243.23126Q33.003136 242.99689 33.440636 242.90314Q33.73751 242.85626 34.471886 242.85626L38.30001 242.85626L38.30001 243.90314L34.51876 243.90314Q33.86251 243.90314 33.55001 244.02814Q33.23751 244.15314 33.05001 244.46564Q32.846886 244.77814 32.846886 245.20001Q32.846886 245.87189 33.284386 246.37189Q33.70626 246.85626 34.89376 246.85626L38.30001 246.85626L38.30001 247.90314ZM38.30001 236.87189L37.51876 236.87189Q38.440636 237.46564 38.440636 238.60626Q38.440636 239.35626 38.034386 239.98126Q37.61251 240.60626 36.878136 240.95001Q36.14376 241.29376 35.190636 241.29376Q34.26876 241.29376 33.503136 240.98126Q32.73751 240.66876 32.346886 240.04376Q31.940638 239.41876 31.940638 238.65314Q31.940638 238.09064 32.17501 237.65314Q32.409386 237.21564 32.784386 236.93439L29.706263 236.93439L29.706263 235.88751L38.30001 235.88751L38.30001 236.87189ZM35.190636 240.20001Q36.39376 240.20001 36.98751 239.70001Q37.565636 239.20001 37.565636 238.51251Q37.565636 237.82501 37.003136 237.34064Q36.440636 236.85626 35.284386 236.85626Q34.003136 236.85626 33.409386 237.35626Q32.815636 237.84064 32.815636 238.55939Q32.815636 239.26251 33.39376 239.73126Q33.95626 240.20001 35.190636 240.20001Z" fill-rule="nonzero"/><path fill="#000000" d="M97.8 466.46564Q97.8 464.9344 98.1125 464.0125Q98.425 463.075 99.03438 462.575Q99.65938 462.075 100.59688 462.075Q101.28438 462.075 101.8 462.35626Q102.33125 462.6375 102.675 463.16876Q103.01875 463.6844 103.20625 464.4344Q103.39375 465.1844 103.39375 466.46564Q103.39375 467.98126 103.08125 468.90314Q102.78438 469.825 102.15938 470.34064Q101.55 470.84064 100.59688 470.84064Q99.3625 470.84064 98.64375 469.95Q97.8 468.8875 97.8 466.46564ZM98.87813 466.46564Q98.87813 468.575 99.37813 469.27814Q99.87813 469.98126 100.59688 469.98126Q101.33125 469.98126 101.81563 469.27814Q102.31563 468.575 102.31563 466.46564Q102.31563 464.34064 101.81563 463.65314Q101.33125 462.95 100.58125 462.95Q99.8625 462.95 99.425 463.5594Q98.87813 464.34064 98.87813 466.46564Z" fill-rule="nonzero"/><path fill="#000000" d="M63.76875 351.36667L62.721874 351.36667L62.721874 344.64792Q62.33125 345.0073 61.70625 345.3823Q61.096874 345.74167 60.6125 345.91354L60.6125 344.89792Q61.4875 344.47604 62.14375 343.89792Q62.815624 343.30417 63.096874 342.74167L63.76875 342.74167L63.76875 351.36667ZM66.8 347.1323Q66.8 345.60104 67.1125 344.67917Q67.425 343.74167 68.03438 343.24167Q68.65938 342.74167 69.59688 342.74167Q70.28438 342.74167 70.8 343.02292Q71.33125 343.30417 71.675 343.83542Q72.01875 344.35104 72.20625 345.10104Q72.39375 345.85104 72.39375 347.1323Q72.39375 348.64792 72.08125 349.5698Q71.78438 350.49167 71.15938 351.0073Q70.55 351.5073 69.59688 351.5073Q68.3625 351.5073 67.64375 350.61667Q66.8 349.55417 66.8 347.1323ZM67.87813 347.1323Q67.87813 349.24167 68.37813 349.9448Q68.87813 350.64792 69.59688 350.64792Q70.33125 350.64792 70.81563 349.9448Q71.31563 349.24167 71.31563 347.1323Q71.31563 345.0073 70.81563 344.3198Q70.33125 343.61667 69.58125 343.61667Q68.8625 343.61667 68.425 344.22604Q67.87813 345.0073 67.87813 347.1323ZM73.8 347.1323Q73.8 345.60104 74.1125 344.67917Q74.425 343.74167 75.03438 343.24167Q75.65938 342.74167 76.59688 342.74167Q77.28438 342.74167 77.8 343.02292Q78.33125 343.30417 78.675 343.83542Q79.01875 344.35104 79.20625 345.10104Q79.39375 345.85104 79.39375 347.1323Q79.39375 348.64792 79.08125 349.5698Q78.78438 350.49167 78.15938 351.0073Q77.55 351.5073 76.59688 351.5073Q75.3625 351.5073 74.64375 350.61667Q73.8 349.55417 73.8 347.1323ZM74.87813 347.1323Q74.87813 349.24167 75.37813 349.9448Q75.87813 350.64792 76.59688 350.64792Q77.33125 350.64792 77.81563 349.9448Q78.31563 349.24167 78.31563 347.1323Q78.31563 345.0073 77.81563 344.3198Q77.33125 343.61667 76.58125 343.61667Q75.8625 343.61667 75.425 344.22604Q74.87813 345.0073 74.87813 347.1323ZM81.3625 351.36667L81.3625 350.16354L82.56563 350.16354L82.56563 351.36667Q82.56563 352.02292 82.33125 352.42917Q82.09688 352.85104 81.59688 353.0698L81.3 352.61667Q81.62813 352.47604 81.78438 352.17917Q81.94063 351.89792 81.97188 351.36667L81.3625 351.36667ZM83.8 347.1323Q83.8 345.60104 84.1125 344.67917Q84.425 343.74167 85.03438 343.24167Q85.65938 342.74167 86.59688 342.74167Q87.28438 342.74167 87.8 343.02292Q88.33125 343.30417 88.675 343.83542Q89.01875 344.35104 89.20625 345.10104Q89.39375 345.85104 89.39375 347.1323Q89.39375 348.64792 89.08125 349.5698Q88.78438 350.49167 88.15938 351.0073Q87.55 351.5073 86.59688 351.5073Q85.3625 351.5073 84.64375 350.61667Q83.8 349.55417 83.8 347.1323ZM84.87813 347.1323Q84.87813 349.24167 85.37813 349.9448Q85.87813 350.64792 86.59688 350.64792Q87.33125 350.64792 87.81563 349.9448Q88.31563 349.24167 88.31563 347.1323Q88.31563 345.0073 87.81563 344.3198Q87.33125 343.61667 86.58125 343.61667Q85.8625 343.61667 85.425 344.22604Q84.87813 345.0073 84.87813 347.1323ZM90.8 347.1323Q90.8 345.60104 91.1125 344.67917Q91.425 343.74167 92.03438 343.24167Q92.65938 342.74167 93.59688 342.74167Q94.28438 342.74167 94.8 343.02292Q95.33125 343.30417 95.675 343.83542Q96.01875 344.35104 96.20625 345.10104Q96.39375 345.85104 96.39375 347.1323Q96.39375 348.64792 96.08125 349.5698Q95.78438 350.49167 95.15938 351.0073Q94.55 351.5073 93.59688 351.5073Q92.3625 351.5073 91.64375 350.61667Q90.8 349.55417 90.8 347.1323ZM91.87813 347.1323Q91.87813 349.24167 92.37813 349.9448Q92.87813 350.64792 93.59688 350.64792Q94.33125 350.64792 94.81563 349.9448Q95.31563 349.24167 95.31563 347.1323Q95.31563 345.0073 94.81563 344.3198Q94.33125 343.61667 93.58125 343.61667Q92.8625 343.61667 92.425 344.22604Q91.87813 345.0073 91.87813 347.1323ZM97.8 347.1323Q97.8 345.60104 98.1125 344.67917Q98.425 343.74167 99.03438 343.24167Q99.65938 342.74167 100.59688 342.74167Q101.28438 342.74167 101.8 343.02292Q102.33125 343.30417 102.675 343.83542Q103.01875 344.35104 103.20625 345.10104Q103.39375 345.85104 103.39375 347.1323Q103.39375 348.64792 103.08125 349.5698Q102.78438 350.49167 102.15938 351.0073Q101.55 351.5073 100.59688 351.5073Q99.3625 351.5073 98.64375 350.61667Q97.8 349.55417 97.8 347.1323ZM98.87813 347.1323Q98.87813 349.24167 99.37813 349.9448Q99.87813 350.64792 100.59688 350.64792Q101.33125 350.64792 101.81563 349.9448Q102.31563 349.24167 102.31563 347.1323Q102.31563 345.0073 101.81563 344.3198Q101.33125 343.61667 100.58125 343.61667Q99.8625 343.61667 99.425 344.22604Q98.87813 345.0073 98.87813 347.1323Z" fill-rule="nonzero"/><path fill="#000000" d="M65.34688 231.01772L65.34688 232.03334L59.659374 232.03334Q59.659374 231.65834 59.784374 231.29897Q60.003124 230.72084 60.471874 230.15834Q60.95625 229.59584 61.8625 228.86147Q63.26875 227.70522 63.753124 227.03334Q64.25313 226.36147 64.25313 225.76772Q64.25313 225.14272 63.8 224.72084Q63.346874 224.28334 62.628124 224.28334Q61.8625 224.28334 61.409374 224.73647Q60.95625 225.18959 60.940624 226.00209L59.8625 225.89272Q59.971874 224.67397 60.690624 224.04897Q61.425 223.40834 62.659374 223.40834Q63.89375 223.40834 64.6125 224.09584Q65.33125 224.78334 65.33125 225.79897Q65.33125 226.31459 65.1125 226.81459Q64.90938 227.29897 64.40938 227.86147Q63.925 228.40834 62.8 229.36147Q61.846874 230.15834 61.565624 230.45522Q61.3 230.73647 61.128124 231.01772L65.34688 231.01772ZM66.8 227.79897Q66.8 226.26772 67.1125 225.34584Q67.425 224.40834 68.03438 223.90834Q68.65938 223.40834 69.59688 223.40834Q70.28438 223.40834 70.8 223.68959Q71.33125 223.97084 71.675 224.50209Q72.01875 225.01772 72.20625 225.76772Q72.39375 226.51772 72.39375 227.79897Q72.39375 229.31459 72.08125 230.23647Q71.78438 231.15834 71.15938 231.67397Q70.55 232.17397 69.59688 232.17397Q68.3625 232.17397 67.64375 231.28334Q66.8 230.22084 66.8 227.79897ZM67.87813 227.79897Q67.87813 229.90834 68.37813 230.61147Q68.87813 231.31459 69.59688 231.31459Q70.33125 231.31459 70.81563 230.61147Q71.31563 229.90834 71.31563 227.79897Q71.31563 225.67397 70.81563 224.98647Q70.33125 224.28334 69.58125 224.28334Q68.8625 224.28334 68.425 224.89272Q67.87813 225.67397 67.87813 227.79897ZM73.8 227.79897Q73.8 226.26772 74.1125 225.34584Q74.425 224.40834 75.03438 223.90834Q75.65938 223.40834 76.59688 223.40834Q77.28438 223.40834 77.8 223.68959Q78.33125 223.97084 78.675 224.50209Q79.01875 225.01772 79.20625 225.76772Q79.39375 226.51772 79.39375 227.79897Q79.39375 229.31459 79.08125 230.23647Q78.78438 231.15834 78.15938 231.67397Q77.55 232.17397 76.59688 232.17397Q75.3625 232.17397 74.64375 231.28334Q73.8 230.22084 73.8 227.79897ZM74.87813 227.79897Q74.87813 229.90834 75.37813 230.61147Q75.87813 231.31459 76.59688 231.31459Q77.33125 231.31459 77.81563 230.61147Q78.31563 229.90834 78.31563 227.79897Q78.31563 225.67397 77.81563 224.98647Q77.33125 224.28334 76.58125 224.28334Q75.8625 224.28334 75.425 224.89272Q74.87813 225.67397 74.87813 227.79897ZM81.3625 232.03334L81.3625 230.83022L82.56563 230.83022L82.56563 232.03334Q82.56563 232.68959 82.33125 233.09584Q82.09688 233.51772 81.59688 233.73647L81.3 233.28334Q81.62813 233.14272 81.78438 232.84584Q81.94063 232.56459 81.97188 232.03334L81.3625 232.03334ZM83.8 227.79897Q83.8 226.26772 84.1125 225.34584Q84.425 224.40834 85.03438 223.90834Q85.65938 223.40834 86.59688 223.40834Q87.28438 223.40834 87.8 223.68959Q88.33125 223.97084 88.675 224.50209Q89.01875 225.01772 89.20625 225.76772Q89.39375 226.51772 89.39375 227.79897Q89.39375 229.31459 89.08125 230.23647Q88.78438 231.15834 88.15938 231.67397Q87.55 232.17397 86.59688 232.17397Q85.3625 232.17397 84.64375 231.28334Q83.8 230.22084 83.8 227.79897ZM84.87813 227.79897Q84.87813 229.90834 85.37813 230.61147Q85.87813 231.31459 86.59688 231.31459Q87.33125 231.31459 87.81563 230.61147Q88.31563 229.90834 88.31563 227.79897Q88.31563 225.67397 87.81563 224.98647Q87.33125 224.28334 86.58125 224.28334Q85.8625 224.28334 85.425 224.89272Q84.87813 225.67397 84.87813 227.79897ZM90.8 227.79897Q90.8 226.26772 91.1125 225.34584Q91.425 224.40834 92.03438 223.90834Q92.65938 223.40834 93.59688 223.40834Q94.28438 223.40834 94.8 223.68959Q95.33125 223.97084 95.675 224.50209Q96.01875 225.01772 96.20625 225.76772Q96.39375 226.51772 96.39375 227.79897Q96.39375 229.31459 96.08125 230.23647Q95.78438 231.15834 95.15938 231.67397Q94.55 232.17397 93.59688 232.17397Q92.3625 232.17397 91.64375 231.28334Q90.8 230.22084 90.8 227.79897ZM91.87813 227.79897Q91.87813 229.90834 92.37813 230.61147Q92.87813 231.31459 93.59688 231.31459Q94.33125 231.31459 94.81563 230.61147Q95.31563 229.90834 95.31563 227.79897Q95.31563 225.67397 94.81563 224.98647Q94.33125 224.28334 93.58125 224.28334Q92.8625 224.28334 92.425 224.89272Q91.87813 225.67397 91.87813 227.79897ZM97.8 227.79897Q97.8 226.26772 98.1125 225.34584Q98.425 224.40834 99.03438 223.90834Q99.65938 223.40834 100.59688 223.40834Q101.28438 223.40834 101.8 223.68959Q102.33125 223.97084 102.675 224.50209Q103.01875 225.01772 103.20625 225.76772Q103.39375 226.51772 103.39375 227.79897Q103.39375 229.31459 103.08125 230.23647Q102.78438 231.15834 102.15938 231.67397Q101.55 232.17397 100.59688 232.17397Q99.3625 232.17397 98.64375 231.28334Q97.8 230.22084 97.8 227.79897ZM98.87813 227.79897Q98.87813 229.90834 99.37813 230.61147Q99.87813 231.31459 100.59688 231.31459Q101.33125 231.31459 101.81563 230.61147Q102.31563 229.90834 102.31563 227.79897Q102.31563 225.67397 101.81563 224.98647Q101.33125 224.28334 100.58125 224.28334Q99.8625 224.28334 99.425 224.89272Q98.87813 225.67397 98.87813 227.79897Z" fill-rule="nonzero"/><path fill="#000000" d="M59.8 110.43437L60.8625 110.29375Q61.034374 111.18437 61.471874 111.59062Q61.909374 111.98125 62.534374 111.98125Q63.284374 111.98125 63.8 111.46562Q64.31563 110.95 64.31563 110.18437Q64.31563 109.46562 63.83125 108.99687Q63.3625 108.5125 62.628124 108.5125Q62.33125 108.5125 61.878124 108.6375L62.003124 107.7Q62.1125 107.71562 62.175 107.71562Q62.846874 107.71562 63.378124 107.37187Q63.925 107.0125 63.925 106.27812Q63.925 105.7 63.534374 105.325Q63.14375 104.93437 62.51875 104.93437Q61.909374 104.93437 61.4875 105.325Q61.08125 105.71562 60.971874 106.48125L59.909374 106.29375Q60.096874 105.24687 60.784374 104.66875Q61.471874 104.075 62.4875 104.075Q63.190624 104.075 63.784374 104.3875Q64.37813 104.68437 64.69063 105.2Q65.00313 105.71562 65.00313 106.30937Q65.00313 106.85625 64.70625 107.325Q64.40938 107.77812 63.83125 108.04375Q64.58125 108.21562 65.00313 108.77812Q65.425 109.325 65.425 110.16875Q65.425 111.29375 64.59688 112.075Q63.784374 112.85625 62.534374 112.85625Q61.409374 112.85625 60.659374 112.18437Q59.909374 111.49687 59.8 110.43437ZM66.8 108.46562Q66.8 106.93437 67.1125 106.0125Q67.425 105.075 68.03438 104.575Q68.65938 104.075 69.59688 104.075Q70.28438 104.075 70.8 104.35625Q71.33125 104.6375 71.675 105.16875Q72.01875 105.68437 72.20625 106.43437Q72.39375 107.18437 72.39375 108.46562Q72.39375 109.98125 72.08125 110.90312Q71.78438 111.825 71.15938 112.34062Q70.55 112.84062 69.59688 112.84062Q68.3625 112.84062 67.64375 111.95Q66.8 110.8875 66.8 108.46562ZM67.87813 108.46562Q67.87813 110.575 68.37813 111.27812Q68.87813 111.98125 69.59688 111.98125Q70.33125 111.98125 70.81563 111.27812Q71.31563 110.575 71.31563 108.46562Q71.31563 106.34062 70.81563 105.65312Q70.33125 104.95 69.58125 104.95Q68.8625 104.95 68.425 105.55937Q67.87813 106.34062 67.87813 108.46562ZM73.8 108.46562Q73.8 106.93437 74.1125 106.0125Q74.425 105.075 75.03438 104.575Q75.65938 104.075 76.59688 104.075Q77.28438 104.075 77.8 104.35625Q78.33125 104.6375 78.675 105.16875Q79.01875 105.68437 79.20625 106.43437Q79.39375 107.18437 79.39375 108.46562Q79.39375 109.98125 79.08125 110.90312Q78.78438 111.825 78.15938 112.34062Q77.55 112.84062 76.59688 112.84062Q75.3625 112.84062 74.64375 111.95Q73.8 110.8875 73.8 108.46562ZM74.87813 108.46562Q74.87813 110.575 75.37813 111.27812Q75.87813 111.98125 76.59688 111.98125Q77.33125 111.98125 77.81563 111.27812Q78.31563 110.575 78.31563 108.46562Q78.31563 106.34062 77.81563 105.65312Q77.33125 104.95 76.58125 104.95Q75.8625 104.95 75.425 105.55937Q74.87813 106.34062 74.87813 108.46562ZM81.3625 112.7L81.3625 111.49687L82.56563 111.49687L82.56563 112.7Q82.56563 113.35625 82.33125 113.7625Q82.09688 114.18437 81.59688 114.40312L81.3 113.95Q81.62813 113.80937 81.78438 113.5125Q81.94063 113.23125 81.97188 112.7L81.3625 112.7ZM83.8 108.46562Q83.8 106.93437 84.1125 106.0125Q84.425 105.075 85.03438 104.575Q85.65938 104.075 86.59688 104.075Q87.28438 104.075 87.8 104.35625Q88.33125 104.6375 88.675 105.16875Q89.01875 105.68437 89.20625 106.43437Q89.39375 107.18437 89.39375 108.46562Q89.39375 109.98125 89.08125 110.90312Q88.78438 111.825 88.15938 112.34062Q87.55 112.84062 86.59688 112.84062Q85.3625 112.84062 84.64375 111.95Q83.8 110.8875 83.8 108.46562ZM84.87813 108.46562Q84.87813 110.575 85.37813 111.27812Q85.87813 111.98125 86.59688 111.98125Q87.33125 111.98125 87.81563 111.27812Q88.31563 110.575 88.31563 108.46562Q88.31563 106.34062 87.81563 105.65312Q87.33125 104.95 86.58125 104.95Q85.8625 104.95 85.425 105.55937Q84.87813 106.34062 84.87813 108.46562ZM90.8 108.46562Q90.8 106.93437 91.1125 106.0125Q91.425 105.075 92.03438 104.575Q92.65938 104.075 93.59688 104.075Q94.28438 104.075 94.8 104.35625Q95.33125 104.6375 95.675 105.16875Q96.01875 105.68437 96.20625 106.43437Q96.39375 107.18437 96.39375 108.46562Q96.39375 109.98125 96.08125 110.90312Q95.78438 111.825 95.15938 112.34062Q94.55 112.84062 93.59688 112.84062Q92.3625 112.84062 91.64375 111.95Q90.8 110.8875 90.8 108.46562ZM91.87813 108.46562Q91.87813 110.575 92.37813 111.27812Q92.87813 111.98125 93.59688 111.98125Q94.33125 111.98125 94.81563 111.27812Q95.31563 110.575 95.31563 108.46562Q95.31563 106.34062 94.81563 105.65312Q94.33125 104.95 93.58125 104.95Q92.8625 104.95 92.425 105.55937Q91.87813 106.34062 91.87813 108.46562ZM97.8 108.46562Q97.8 106.93437 98.1125 106.0125Q98.425 105.075 99.03438 104.575Q99.65938 104.075 100.59688 104.075Q101.28438 104.075 101.8 104.35625Q102.33125 104.6375 102.675 105.16875Q103.01875 105.68437 103.20625 106.43437Q103.39375 107.18437 103.39375 108.46562Q103.39375 109.98125 103.08125 110.90312Q102.78438 111.825 102.15938 112.34062Q101.55 112.84062 100.59688 112.84062Q99.3625 112.84062 98.64375 111.95Q97.8 110.8875 97.8 108.46562ZM98.87813 108.46562Q98.87813 110.575 99.37813 111.27812Q99.87813 111.98125 100.59688 111.98125Q101.33125 111.98125 101.81563 111.27812Q102.31563 110.575 102.31563 108.46562Q102.31563 106.34062 101.81563 105.65312Q101.33125 104.95 100.58125 104.95Q99.8625 104.95 99.425 105.55937Q98.87813 106.34062 98.87813 108.46562Z" fill-rule="nonzero"/><path fill="#000000" d="M285.71762 483.7L284.67075 483.7L284.67075 476.98126Q284.28012 477.34064 283.65512 477.71564Q283.04575 478.075 282.56137 478.2469L282.56137 477.23126Q283.43637 476.8094 284.09262 476.23126Q284.7645 475.6375 285.04575 475.075L285.71762 475.075L285.71762 483.7ZM288.74887 479.46564Q288.74887 477.9344 289.06137 477.0125Q289.37387 476.075 289.98325 475.575Q290.60825 475.075 291.54575 475.075Q292.23325 475.075 292.74887 475.35626Q293.28012 475.6375 293.62387 476.16876Q293.96762 476.6844 294.15512 477.4344Q294.34262 478.1844 294.34262 479.46564Q294.34262 480.98126 294.03012 481.90314Q293.73325 482.825 293.10825 483.34064Q292.49887 483.84064 291.54575 483.84064Q290.31137 483.84064 289.59262 482.95Q288.74887 481.8875 288.74887 479.46564ZM289.827 479.46564Q289.827 481.575 290.327 482.27814Q290.827 482.98126 291.54575 482.98126Q292.28012 482.98126 292.7645 482.27814Q293.2645 481.575 293.2645 479.46564Q293.2645 477.34064 292.7645 476.65314Q292.28012 475.95 291.53012 475.95Q290.81137 475.95 290.37387 476.5594Q289.827 477.34064 289.827 479.46564ZM295.74887 479.46564Q295.74887 477.9344 296.06137 477.0125Q296.37387 476.075 296.98325 475.575Q297.60825 475.075 298.54575 475.075Q299.23325 475.075 299.74887 475.35626Q300.28012 475.6375 300.62387 476.16876Q300.96762 476.6844 301.15512 477.4344Q301.34262 478.1844 301.34262 479.46564Q301.34262 480.98126 301.03012 481.90314Q300.73325 482.825 300.10825 483.34064Q299.49887 483.84064 298.54575 483.84064Q297.31137 483.84064 296.59262 482.95Q295.74887 481.8875 295.74887 479.46564ZM296.827 479.46564Q296.827 481.575 297.327 482.27814Q297.827 482.98126 298.54575 482.98126Q299.28012 482.98126 299.7645 482.27814Q300.2645 481.575 300.2645 479.46564Q300.2645 477.34064 299.7645 476.65314Q299.28012 475.95 298.53012 475.95Q297.81137 475.95 297.37387 476.5594Q296.827 477.34064 296.827 479.46564ZM302.74887 479.46564Q302.74887 477.9344 303.06137 477.0125Q303.37387 476.075 303.98325 475.575Q304.60825 475.075 305.54575 475.075Q306.23325 475.075 306.74887 475.35626Q307.28012 475.6375 307.62387 476.16876Q307.96762 476.6844 308.15512 477.4344Q308.34262 478.1844 308.34262 479.46564Q308.34262 480.98126 308.03012 481.90314Q307.73325 482.825 307.10825 483.34064Q306.49887 483.84064 305.54575 483.84064Q304.31137 483.84064 303.59262 482.95Q302.74887 481.8875 302.74887 479.46564ZM303.827 479.46564Q303.827 481.575 304.327 482.27814Q304.827 482.98126 305.54575 482.98126Q306.28012 482.98126 306.7645 482.27814Q307.2645 481.575 307.2645 479.46564Q307.2645 477.34064 306.7645 476.65314Q306.28012 475.95 305.53012 475.95Q304.81137 475.95 304.37387 476.5594Q303.827 477.34064 303.827 479.46564Z" fill-rule="nonzero"/><path fill="#000000" d="M474.1128 482.6844L474.1128 483.7L468.4253 483.7Q468.4253 483.325 468.5503 482.96564Q468.76904 482.3875 469.2378 481.825Q469.72217 481.2625 470.62842 480.52814Q472.03467 479.3719 472.51904 478.7Q473.01904 478.02814 473.01904 477.4344Q473.01904 476.8094 472.56592 476.3875Q472.1128 475.95 471.39404 475.95Q470.62842 475.95 470.1753 476.40314Q469.72217 476.85626 469.70654 477.66876L468.62842 477.5594Q468.7378 476.34064 469.45654 475.71564Q470.19092 475.075 471.4253 475.075Q472.65967 475.075 473.37842 475.7625Q474.09717 476.45 474.09717 477.46564Q474.09717 477.98126 473.87842 478.48126Q473.6753 478.96564 473.1753 479.52814Q472.69092 480.075 471.56592 481.02814Q470.6128 481.825 470.33154 482.1219Q470.06592 482.40314 469.89404 482.6844L474.1128 482.6844ZM475.56592 479.46564Q475.56592 477.9344 475.87842 477.0125Q476.19092 476.075 476.8003 475.575Q477.4253 475.075 478.3628 475.075Q479.0503 475.075 479.56592 475.35626Q480.09717 475.6375 480.44092 476.16876Q480.78467 476.6844 480.97217 477.4344Q481.15967 478.1844 481.15967 479.46564Q481.15967 480.98126 480.84717 481.90314Q480.5503 482.825 479.9253 483.34064Q479.31592 483.84064 478.3628 483.84064Q477.12842 483.84064 476.40967 482.95Q475.56592 481.8875 475.56592 479.46564ZM476.64404 479.46564Q476.64404 481.575 477.14404 482.27814Q477.64404 482.98126 478.3628 482.98126Q479.09717 482.98126 479.58154 482.27814Q480.08154 481.575 480.08154 479.46564Q480.08154 477.34064 479.58154 476.65314Q479.09717 475.95 478.34717 475.95Q477.62842 475.95 477.19092 476.5594Q476.64404 477.34064 476.64404 479.46564ZM482.56592 479.46564Q482.56592 477.9344 482.87842 477.0125Q483.19092 476.075 483.8003 475.575Q484.4253 475.075 485.3628 475.075Q486.0503 475.075 486.56592 475.35626Q487.09717 475.6375 487.44092 476.16876Q487.78467 476.6844 487.97217 477.4344Q488.15967 478.1844 488.15967 479.46564Q488.15967 480.98126 487.84717 481.90314Q487.5503 482.825 486.9253 483.34064Q486.31592 483.84064 485.3628 483.84064Q484.12842 483.84064 483.40967 482.95Q482.56592 481.8875 482.56592 479.46564ZM483.64404 479.46564Q483.64404 481.575 484.14404 482.27814Q484.64404 482.98126 485.3628 482.98126Q486.09717 482.98126 486.58154 482.27814Q487.08154 481.575 487.08154 479.46564Q487.08154 477.34064 486.58154 476.65314Q486.09717 475.95 485.34717 475.95Q484.62842 475.95 484.19092 476.5594Q483.64404 477.34064 483.64404 479.46564ZM489.56592 479.46564Q489.56592 477.9344 489.87842 477.0125Q490.19092 476.075 490.8003 475.575Q491.4253 475.075 492.3628 475.075Q493.0503 475.075 493.56592 475.35626Q494.09717 475.6375 494.44092 476.16876Q494.78467 476.6844 494.97217 477.4344Q495.15967 478.1844 495.15967 479.46564Q495.15967 480.98126 494.84717 481.90314Q494.5503 482.825 493.9253 483.34064Q493.31592 483.84064 492.3628 483.84064Q491.12842 483.84064 490.40967 482.95Q489.56592 481.8875 489.56592 479.46564ZM490.64404 479.46564Q490.64404 481.575 491.14404 482.27814Q491.64404 482.98126 492.3628 482.98126Q493.09717 482.98126 493.58154 482.27814Q494.08154 481.575 494.08154 479.46564Q494.08154 477.34064 493.58154 476.65314Q493.09717 475.95 492.34717 475.95Q491.62842 475.95 491.19092 476.5594Q490.64404 477.34064 490.64404 479.46564Z" fill-rule="nonzero"/><path fill="#000000" d="M655.38293 481.4344L656.44543 481.29376Q656.6173 482.1844 657.0548 482.59064Q657.4923 482.98126 658.1173 482.98126Q658.8673 482.98126 659.38293 482.46564Q659.89856 481.95 659.89856 481.1844Q659.89856 480.46564 659.4142 479.9969Q658.94543 479.5125 658.21106 479.5125Q657.9142 479.5125 657.46106 479.6375L657.58606 478.7Q657.69543 478.71564 657.75793 478.71564Q658.4298 478.71564 658.96106 478.3719Q659.50793 478.0125 659.50793 477.27814Q659.50793 476.7 659.1173 476.325Q658.7267 475.9344 658.1017 475.9344Q657.4923 475.9344 657.07043 476.325Q656.6642 476.71564 656.5548 477.48126L655.4923 477.29376Q655.6798 476.2469 656.3673 475.66876Q657.0548 475.075 658.07043 475.075Q658.77356 475.075 659.3673 475.3875Q659.96106 475.6844 660.27356 476.2Q660.58606 476.71564 660.58606 477.3094Q660.58606 477.85626 660.2892 478.325Q659.9923 478.77814 659.4142 479.04376Q660.1642 479.21564 660.58606 479.77814Q661.00793 480.325 661.00793 481.16876Q661.00793 482.29376 660.1798 483.075Q659.3673 483.85626 658.1173 483.85626Q656.9923 483.85626 656.2423 483.1844Q655.4923 482.4969 655.38293 481.4344ZM662.38293 479.46564Q662.38293 477.9344 662.69543 477.0125Q663.00793 476.075 663.6173 475.575Q664.2423 475.075 665.1798 475.075Q665.8673 475.075 666.38293 475.35626Q666.9142 475.6375 667.25793 476.16876Q667.6017 476.6844 667.7892 477.4344Q667.9767 478.1844 667.9767 479.46564Q667.9767 480.98126 667.6642 481.90314Q667.3673 482.825 666.7423 483.34064Q666.13293 483.84064 665.1798 483.84064Q663.94543 483.84064 663.2267 482.95Q662.38293 481.8875 662.38293 479.46564ZM663.46106 479.46564Q663.46106 481.575 663.96106 482.27814Q664.46106 482.98126 665.1798 482.98126Q665.9142 482.98126 666.39856 482.27814Q666.89856 481.575 666.89856 479.46564Q666.89856 477.34064 666.39856 476.65314Q665.9142 475.95 665.1642 475.95Q664.44543 475.95 664.00793 476.5594Q663.46106 477.34064 663.46106 479.46564ZM669.38293 479.46564Q669.38293 477.9344 669.69543 477.0125Q670.00793 476.075 670.6173 475.575Q671.2423 475.075 672.1798 475.075Q672.8673 475.075 673.38293 475.35626Q673.9142 475.6375 674.25793 476.16876Q674.6017 476.6844 674.7892 477.4344Q674.9767 478.1844 674.9767 479.46564Q674.9767 480.98126 674.6642 481.90314Q674.3673 482.825 673.7423 483.34064Q673.13293 483.84064 672.1798 483.84064Q670.94543 483.84064 670.2267 482.95Q669.38293 481.8875 669.38293 479.46564ZM670.46106 479.46564Q670.46106 481.575 670.96106 482.27814Q671.46106 482.98126 672.1798 482.98126Q672.9142 482.98126 673.39856 482.27814Q673.89856 481.575 673.89856 479.46564Q673.89856 477.34064 673.39856 476.65314Q672.9142 475.95 672.1642 475.95Q671.44543 475.95 671.00793 476.5594Q670.46106 477.34064 670.46106 479.46564ZM676.38293 479.46564Q676.38293 477.9344 676.69543 477.0125Q677.00793 476.075 677.6173 475.575Q678.2423 475.075 679.1798 475.075Q679.8673 475.075 680.38293 475.35626Q680.9142 475.6375 681.25793 476.16876Q681.6017 476.6844 681.7892 477.4344Q681.9767 478.1844 681.9767 479.46564Q681.9767 480.98126 681.6642 481.90314Q681.3673 482.825 680.7423 483.34064Q680.13293 483.84064 679.1798 483.84064Q677.94543 483.84064 677.2267 482.95Q676.38293 481.8875 676.38293 479.46564ZM677.46106 479.46564Q677.46106 481.575 677.96106 482.27814Q678.46106 482.98126 679.1798 482.98126Q679.9142 482.98126 680.39856 482.27814Q680.89856 481.575 680.89856 479.46564Q680.89856 477.34064 680.39856 476.65314Q679.9142 475.95 679.1642 475.95Q678.44543 475.95 678.00793 476.5594Q677.46106 477.34064 677.46106 479.46564Z" fill-rule="nonzero"/><path fill="#000000" d="M845.575 483.7L845.575 481.6375L841.85626 481.6375L841.85626 480.66876L845.77814 475.10626L846.6375 475.10626L846.6375 480.66876L847.79376 480.66876L847.79376 481.6375L846.6375 481.6375L846.6375 483.7L845.575 483.7ZM845.575 480.66876L845.575 476.8094L842.8875 480.66876L845.575 480.66876ZM849.2 479.46564Q849.2 477.9344 849.5125 477.0125Q849.825 476.075 850.4344 475.575Q851.0594 475.075 851.9969 475.075Q852.6844 475.075 853.2 475.35626Q853.73126 475.6375 854.075 476.16876Q854.41876 476.6844 854.60626 477.4344Q854.79376 478.1844 854.79376 479.46564Q854.79376 480.98126 854.48126 481.90314Q854.1844 482.825 853.5594 483.34064Q852.95 483.84064 851.9969 483.84064Q850.7625 483.84064 850.04376 482.95Q849.2 481.8875 849.2 479.46564ZM850.27814 479.46564Q850.27814 481.575 850.77814 482.27814Q851.27814 482.98126 851.9969 482.98126Q852.73126 482.98126 853.21564 482.27814Q853.71564 481.575 853.71564 479.46564Q853.71564 477.34064 853.21564 476.65314Q852.73126 475.95 851.98126 475.95Q851.2625 475.95 850.825 476.5594Q850.27814 477.34064 850.27814 479.46564ZM856.2 479.46564Q856.2 477.9344 856.5125 477.0125Q856.825 476.075 857.4344 475.575Q858.0594 475.075 858.9969 475.075Q859.6844 475.075 860.2 475.35626Q860.73126 475.6375 861.075 476.16876Q861.41876 476.6844 861.60626 477.4344Q861.79376 478.1844 861.79376 479.46564Q861.79376 480.98126 861.48126 481.90314Q861.1844 482.825 860.5594 483.34064Q859.95 483.84064 858.9969 483.84064Q857.7625 483.84064 857.04376 482.95Q856.2 481.8875 856.2 479.46564ZM857.27814 479.46564Q857.27814 481.575 857.77814 482.27814Q858.27814 482.98126 858.9969 482.98126Q859.73126 482.98126 860.21564 482.27814Q860.71564 481.575 860.71564 479.46564Q860.71564 477.34064 860.21564 476.65314Q859.73126 475.95 858.98126 475.95Q858.2625 475.95 857.825 476.5594Q857.27814 477.34064 857.27814 479.46564ZM863.2 479.46564Q863.2 477.9344 863.5125 477.0125Q863.825 476.075 864.4344 475.575Q865.0594 475.075 865.9969 475.075Q866.6844 475.075 867.2 475.35626Q867.73126 475.6375 868.075 476.16876Q868.41876 476.6844 868.60626 477.4344Q868.79376 478.1844 868.79376 479.46564Q868.79376 480.98126 868.48126 481.90314Q868.1844 482.825 867.5594 483.34064Q866.95 483.84064 865.9969 483.84064Q864.7625 483.84064 864.04376 482.95Q863.2 481.8875 863.2 479.46564ZM864.27814 479.46564Q864.27814 481.575 864.77814 482.27814Q865.27814 482.98126 865.9969 482.98126Q866.73126 482.98126 867.21564 482.27814Q867.71564 481.575 867.71564 479.46564Q867.71564 477.34064 867.21564 476.65314Q866.73126 475.95 865.98126 475.95Q865.2625 475.95 864.825 476.5594Q864.27814 477.34064 864.27814 479.46564Z" fill-rule="nonzero"/><path stroke="#4285f4" stroke-width="4.0" stroke-linecap="butt" d="M357.0 76.5L369.0 76.5" fill-rule="nonzero"/><path fill="#1a1a1a" d="M377.5 78.25L378.60938 78.15625Q378.73438 78.96875 379.17188 79.375Q379.625 79.78125 380.26562 79.78125Q381.01562 79.78125 381.54688 79.203125Q382.07812 78.625 382.07812 77.6875Q382.07812 76.78125 381.5625 76.265625Q381.0625 75.734375 380.23438 75.734375Q379.73438 75.734375 379.3125 75.96875Q378.90625 76.203125 378.67188 76.5625L377.6875 76.4375L378.51562 72.03125L382.79688 72.03125L382.79688 73.03125L379.35938 73.03125L378.90625 75.34375Q379.67188 74.796875 380.51562 74.796875Q381.64062 74.796875 382.40625 75.578125Q383.1875 76.359375 383.1875 77.59375Q383.1875 78.75 382.51562 79.609375Q381.6875 80.640625 380.26562 80.640625Q379.09375 80.640625 378.34375 79.984375Q377.60938 79.328125 377.5 78.25ZM388.46875 80.5L387.42188 80.5L387.42188 73.78125Q387.03125 74.140625 386.40625 74.515625Q385.79688 74.875 385.3125 75.046875L385.3125 74.03125Q386.1875 73.609375 386.84375 73.03125Q387.51562 72.4375 387.79688 71.875L388.46875 71.875L388.46875 80.5ZM397.04688 79.484375L397.04688 80.5L391.35938 80.5Q391.35938 80.125 391.48438 79.765625Q391.70312 79.1875 392.17188 78.625Q392.65625 78.0625 393.5625 77.328125Q394.96875 76.171875 395.45312 75.5Q395.95312 74.828125 395.95312 74.234375Q395.95312 73.609375 395.5 73.1875Q395.04688 72.75 394.32812 72.75Q393.5625 72.75 393.10938 73.203125Q392.65625 73.65625 392.64062 74.46875L391.5625 74.359375Q391.67188 73.140625 392.39062 72.515625Q393.125 71.875 394.35938 71.875Q395.59375 71.875 396.3125 72.5625Q397.03125 73.25 397.03125 74.265625Q397.03125 74.78125 396.8125 75.28125Q396.60938 75.765625 396.10938 76.328125Q395.625 76.875 394.5 77.828125Q393.54688 78.625 393.26562 78.921875Q393.0 79.203125 392.82812 79.484375L397.04688 79.484375ZM402.76562 80.5L401.78125 80.5L401.78125 71.90625L402.84375 71.90625L402.84375 74.96875Q403.51562 74.140625 404.54688 74.140625Q405.125 74.140625 405.625 74.375Q406.14062 74.59375 406.46875 75.015625Q406.8125 75.4375 407.0 76.03125Q407.1875 76.625 407.1875 77.296875Q407.1875 78.890625 406.39062 79.765625Q405.59375 80.640625 404.5 80.640625Q403.39062 80.640625 402.76562 79.71875L402.76562 80.5ZM402.75 77.34375Q402.75 78.453125 403.0625 78.953125Q403.5625 79.765625 404.40625 79.765625Q405.09375 79.765625 405.59375 79.171875Q406.10938 78.578125 406.10938 77.375Q406.10938 76.15625 405.625 75.578125Q405.14062 75.0 404.45312 75.0Q403.76562 75.0 403.25 75.609375Q402.75 76.203125 402.75 77.34375ZM408.75 82.890625L408.625 81.90625Q408.96875 82.0 409.23438 82.0Q409.57812 82.0 409.78125 81.875Q410.0 81.765625 410.14062 81.5625Q410.23438 81.390625 410.46875 80.765625Q410.48438 80.6875 410.5625 80.515625L408.1875 74.28125L409.32812 74.28125L410.625 77.875Q410.875 78.5625 411.07812 79.328125Q411.26562 78.59375 411.51562 77.90625L412.84375 74.28125L413.89062 74.28125L411.53125 80.609375Q411.14062 81.625 410.9375 82.015625Q410.65625 82.546875 410.28125 82.78125Q409.92188 83.03125 409.42188 83.03125Q409.125 83.03125 408.75 82.890625ZM416.09375 79.5625L416.25 80.484375Q415.79688 80.578125 415.45312 80.578125Q414.875 80.578125 414.5625 80.40625Q414.25 80.21875 414.10938 79.921875Q413.98438 79.625 413.98438 78.671875L413.98438 75.09375L413.21875 75.09375L413.21875 74.28125L413.98438 74.28125L413.98438 72.734375L415.03125 72.109375L415.03125 74.28125L416.09375 74.28125L416.09375 75.09375L415.03125 75.09375L415.03125 78.734375Q415.03125 79.1875 415.07812 79.3125Q415.14062 79.4375 415.26562 79.515625Q415.39062 79.59375 415.625 79.59375Q415.8125 79.59375 416.09375 79.5625ZM421.04688 78.5L422.14062 78.625Q421.89062 79.578125 421.1875 80.109375Q420.48438 80.640625 419.40625 80.640625Q418.04688 80.640625 417.23438 79.796875Q416.4375 78.953125 416.4375 77.4375Q416.4375 75.875 417.25 75.015625Q418.0625 74.140625 419.34375 74.140625Q420.59375 74.140625 421.375 74.984375Q422.17188 75.828125 422.17188 77.375Q422.17188 77.46875 422.17188 77.65625L417.53125 77.65625Q417.59375 78.6875 418.10938 79.234375Q418.625 79.765625 419.40625 79.765625Q419.98438 79.765625 420.39062 79.46875Q420.8125 79.15625 421.04688 78.5ZM417.59375 76.796875L421.0625 76.796875Q421.0 76.0 420.67188 75.609375Q420.15625 75.0 419.35938 75.0Q418.625 75.0 418.125 75.484375Q417.64062 75.96875 417.59375 76.796875ZM423.375 78.640625L424.40625 78.484375Q424.5 79.109375 424.89062 79.4375Q425.29688 79.765625 426.03125 79.765625Q426.75 79.765625 427.09375 79.484375Q427.45312 79.1875 427.45312 78.78125Q427.45312 78.421875 427.14062 78.21875Q426.92188 78.078125 426.0625 77.859375Q424.90625 77.5625 424.45312 77.359375Q424.01562 77.140625 423.78125 76.765625Q423.54688 76.390625 423.54688 75.921875Q423.54688 75.515625 423.73438 75.15625Q423.92188 74.796875 424.25 74.5625Q424.5 74.390625 424.92188 74.265625Q425.34375 74.140625 425.84375 74.140625Q426.5625 74.140625 427.10938 74.359375Q427.67188 74.5625 427.9375 74.921875Q428.20312 75.28125 428.29688 75.875L427.26562 76.015625Q427.20312 75.546875 426.85938 75.28125Q426.53125 75.0 425.90625 75.0Q425.1875 75.0 424.875 75.25Q424.5625 75.484375 424.5625 75.8125Q424.5625 76.015625 424.6875 76.171875Q424.82812 76.34375 425.09375 76.453125Q425.25 76.515625 426.03125 76.71875Q427.15625 77.03125 427.59375 77.21875Q428.03125 77.40625 428.28125 77.765625Q428.53125 78.125 428.53125 78.671875Q428.53125 79.203125 428.21875 79.671875Q427.92188 80.125 427.34375 80.390625Q426.76562 80.640625 426.03125 80.640625Q424.8125 80.640625 424.17188 80.140625Q423.54688 79.625 423.375 78.640625Z" fill-rule="nonzero"/><path stroke="#ea4335" stroke-width="4.0" stroke-linecap="butt" d="M446.0 76.5L458.0 76.5" fill-rule="nonzero"/><path fill="#1a1a1a" d="M469.875 80.5L469.875 78.4375L466.15625 78.4375L466.15625 77.46875L470.07812 71.90625L470.9375 71.90625L470.9375 77.46875L472.09375 77.46875L472.09375 78.4375L470.9375 78.4375L470.9375 80.5L469.875 80.5ZM469.875 77.46875L469.875 73.609375L467.1875 77.46875L469.875 77.46875ZM473.5 76.265625Q473.5 74.734375 473.8125 73.8125Q474.125 72.875 474.73438 72.375Q475.35938 71.875 476.29688 71.875Q476.98438 71.875 477.5 72.15625Q478.03125 72.4375 478.375 72.96875Q478.71875 73.484375 478.90625 74.234375Q479.09375 74.984375 479.09375 76.265625Q479.09375 77.78125 478.78125 78.703125Q478.48438 79.625 477.85938 80.140625Q477.25 80.640625 476.29688 80.640625Q475.0625 80.640625 474.34375 79.75Q473.5 78.6875 473.5 76.265625ZM474.57812 76.265625Q474.57812 78.375 475.07812 79.078125Q475.57812 79.78125 476.29688 79.78125Q477.03125 79.78125 477.51562 79.078125Q478.01562 78.375 478.01562 76.265625Q478.01562 74.140625 477.51562 73.453125Q477.03125 72.75 476.28125 72.75Q475.5625 72.75 475.125 73.359375Q474.57812 74.140625 474.57812 76.265625ZM480.65625 78.515625L481.67188 78.421875Q481.79688 79.140625 482.15625 79.46875Q482.53125 79.78125 483.09375 79.78125Q483.57812 79.78125 483.9375 79.5625Q484.3125 79.328125 484.54688 78.96875Q484.78125 78.59375 484.9375 77.96875Q485.09375 77.328125 485.09375 76.671875Q485.09375 76.59375 485.09375 76.453125Q484.78125 76.953125 484.23438 77.28125Q483.6875 77.59375 483.04688 77.59375Q481.96875 77.59375 481.23438 76.828125Q480.5 76.046875 480.5 74.78125Q480.5 73.46875 481.26562 72.671875Q482.04688 71.875 483.20312 71.875Q484.03125 71.875 484.71875 72.328125Q485.42188 72.78125 485.78125 73.625Q486.14062 74.453125 486.14062 76.03125Q486.14062 77.671875 485.78125 78.65625Q485.4375 79.625 484.71875 80.140625Q484.01562 80.640625 483.07812 80.640625Q482.0625 80.640625 481.42188 80.09375Q480.78125 79.53125 480.65625 78.515625ZM484.96875 74.71875Q484.96875 73.8125 484.48438 73.28125Q484.01562 72.75 483.32812 72.75Q482.625 72.75 482.09375 73.328125Q481.57812 73.890625 481.57812 74.8125Q481.57812 75.625 482.07812 76.140625Q482.57812 76.65625 483.29688 76.65625Q484.03125 76.65625 484.5 76.140625Q484.96875 75.625 484.96875 74.71875ZM492.96875 74.015625L491.92188 74.09375Q491.78125 73.46875 491.53125 73.1875Q491.09375 72.734375 490.46875 72.734375Q489.96875 72.734375 489.57812 73.015625Q489.09375 73.390625 488.79688 74.09375Q488.51562 74.78125 488.5 76.0625Q488.875 75.484375 489.42188 75.203125Q489.98438 74.921875 490.59375 74.921875Q491.64062 74.921875 492.375 75.703125Q493.125 76.484375 493.125 77.703125Q493.125 78.515625 492.76562 79.21875Q492.42188 79.90625 491.8125 80.28125Q491.20312 80.640625 490.4375 80.640625Q489.10938 80.640625 488.28125 79.671875Q487.45312 78.703125 487.45312 76.484375Q487.45312 73.984375 488.375 72.859375Q489.17188 71.875 490.53125 71.875Q491.54688 71.875 492.1875 72.453125Q492.84375 73.015625 492.96875 74.015625ZM488.67188 77.71875Q488.67188 78.265625 488.89062 78.765625Q489.125 79.25 489.53125 79.515625Q489.95312 79.78125 490.42188 79.78125Q491.07812 79.78125 491.5625 79.25Q492.04688 78.703125 492.04688 77.78125Q492.04688 76.890625 491.5625 76.375Q491.09375 75.859375 490.375 75.859375Q489.65625 75.859375 489.15625 76.375Q488.67188 76.890625 488.67188 77.71875ZM498.76562 80.5L497.78125 80.5L497.78125 71.90625L498.84375 71.90625L498.84375 74.96875Q499.51562 74.140625 500.54688 74.140625Q501.125 74.140625 501.625 74.375Q502.14062 74.59375 502.46875 75.015625Q502.8125 75.4375 503.0 76.03125Q503.1875 76.625 503.1875 77.296875Q503.1875 78.890625 502.39062 79.765625Q501.59375 80.640625 500.5 80.640625Q499.39062 80.640625 498.76562 79.71875L498.76562 80.5ZM498.75 77.34375Q498.75 78.453125 499.0625 78.953125Q499.5625 79.765625 500.40625 79.765625Q501.09375 79.765625 501.59375 79.171875Q502.10938 78.578125 502.10938 77.375Q502.10938 76.15625 501.625 75.578125Q501.14062 75.0 500.45312 75.0Q499.76562 75.0 499.25 75.609375Q498.75 76.203125 498.75 77.34375ZM504.75 82.890625L504.625 81.90625Q504.96875 82.0 505.23438 82.0Q505.57812 82.0 505.78125 81.875Q506.0 81.765625 506.14062 81.5625Q506.23438 81.390625 506.46875 80.765625Q506.48438 80.6875 506.5625 80.515625L504.1875 74.28125L505.32812 74.28125L506.625 77.875Q506.875 78.5625 507.07812 79.328125Q507.26562 78.59375 507.51562 77.90625L508.84375 74.28125L509.89062 74.28125L507.53125 80.609375Q507.14062 81.625 506.9375 82.015625Q506.65625 82.546875 506.28125 82.78125Q505.92188 83.03125 505.42188 83.03125Q505.125 83.03125 504.75 82.890625ZM512.09375 79.5625L512.25 80.484375Q511.79688 80.578125 511.45312 80.578125Q510.875 80.578125 510.5625 80.40625Q510.25 80.21875 510.10938 79.921875Q509.98438 79.625 509.98438 78.671875L509.98438 75.09375L509.21875 75.09375L509.21875 74.28125L509.98438 74.28125L509.98438 72.734375L511.03125 72.109375L511.03125 74.28125L512.09375 74.28125L512.09375 75.09375L511.03125 75.09375L511.03125 78.734375Q511.03125 79.1875 511.07812 79.3125Q511.14062 79.4375 511.26562 79.515625Q511.39062 79.59375 511.625 79.59375Q511.8125 79.59375 512.09375 79.5625ZM517.0469 78.5L518.1406 78.625Q517.8906 79.578125 517.1875 80.109375Q516.4844 80.640625 515.40625 80.640625Q514.0469 80.640625 513.2344 79.796875Q512.4375 78.953125 512.4375 77.4375Q512.4375 75.875 513.25 75.015625Q514.0625 74.140625 515.34375 74.140625Q516.59375 74.140625 517.375 74.984375Q518.1719 75.828125 518.1719 77.375Q518.1719 77.46875 518.1719 77.65625L513.53125 77.65625Q513.59375 78.6875 514.1094 79.234375Q514.625 79.765625 515.40625 79.765625Q515.9844 79.765625 516.3906 79.46875Q516.8125 79.15625 517.0469 78.5ZM513.59375 76.796875L517.0625 76.796875Q517.0 76.0 516.6719 75.609375Q516.15625 75.0 515.3594 75.0Q514.625 75.0 514.125 75.484375Q513.6406 75.96875 513.59375 76.796875ZM519.375 78.640625L520.40625 78.484375Q520.5 79.109375 520.8906 79.4375Q521.2969 79.765625 522.03125 79.765625Q522.75 79.765625 523.09375 79.484375Q523.4531 79.1875 523.4531 78.78125Q523.4531 78.421875 523.1406 78.21875Q522.9219 78.078125 522.0625 77.859375Q520.90625 77.5625 520.4531 77.359375Q520.0156 77.140625 519.78125 76.765625Q519.5469 76.390625 519.5469 75.921875Q519.5469 75.515625 519.7344 75.15625Q519.9219 74.796875 520.25 74.5625Q520.5 74.390625 520.9219 74.265625Q521.34375 74.140625 521.84375 74.140625Q522.5625 74.140625 523.1094 74.359375Q523.6719 74.5625 523.9375 74.921875Q524.2031 75.28125 524.2969 75.875L523.2656 76.015625Q523.2031 75.546875 522.8594 75.28125Q522.53125 75.0 521.90625 75.0Q521.1875 75.0 520.875 75.25Q520.5625 75.484375 520.5625 75.8125Q520.5625 76.015625 520.6875 76.171875Q520.8281 76.34375 521.09375 76.453125Q521.25 76.515625 522.03125 76.71875Q523.15625 77.03125 523.59375 77.21875Q524.03125 77.40625 524.28125 77.765625Q524.53125 78.125 524.53125 78.671875Q524.53125 79.203125 524.21875 79.671875Q523.9219 80.125 523.34375 80.390625Q522.7656 80.640625 522.03125 80.640625Q520.8125 80.640625 520.1719 80.140625Q519.5469 79.625 519.375 78.640625Z" fill-rule="nonzero"/><path fill="#757575" d="M28.76875 46.3L28.76875 31.9875L34.14375 31.9875Q35.784374 31.9875 36.76875 32.425Q37.753124 32.846874 38.315624 33.753124Q38.878124 34.659374 38.878124 35.64375Q38.878124 36.565624 38.378124 37.378124Q37.89375 38.190624 36.878124 38.675Q38.175 39.065624 38.878124 39.9875Q39.58125 40.89375 39.58125 42.14375Q39.58125 43.159374 39.14375 44.01875Q38.721874 44.878124 38.096874 45.346874Q37.471874 45.815624 36.534374 46.065624Q35.596874 46.3 34.221874 46.3L28.76875 46.3ZM30.659374 38.003124L33.753124 38.003124Q35.01875 38.003124 35.565624 37.83125Q36.284374 37.6125 36.64375 37.128124Q37.01875 36.628124 37.01875 35.8625Q37.01875 35.159374 36.675 34.6125Q36.33125 34.065624 35.690624 33.878124Q35.065624 33.675 33.51875 33.675L30.659374 33.675L30.659374 38.003124ZM30.659374 44.6125L34.221874 44.6125Q35.14375 44.6125 35.51875 44.534374Q36.175 44.425 36.6125 44.159374Q37.05 43.878124 37.33125 43.3625Q37.6125 42.83125 37.6125 42.14375Q37.6125 41.346874 37.20625 40.753124Q36.8 40.159374 36.065624 39.925Q35.33125 39.690624 33.971874 39.690624L30.659374 39.690624L30.659374 44.6125ZM41.58125 46.3L41.58125 31.9875L43.33125 31.9875L43.33125 46.3L41.58125 46.3ZM44.971874 41.1125Q44.971874 38.2375 46.565624 36.846874Q47.909374 35.690624 49.83125 35.690624Q51.971874 35.690624 53.315624 37.096874Q54.675 38.503124 54.675 40.971874Q54.675 42.971874 54.08125 44.128124Q53.4875 45.26875 52.33125 45.909374Q51.190624 46.534374 49.83125 46.534374Q47.64375 46.534374 46.3 45.14375Q44.971874 43.7375 44.971874 41.1125ZM46.76875 41.1125Q46.76875 43.1125 47.628124 44.096874Q48.503124 45.08125 49.83125 45.08125Q51.14375 45.08125 52.003124 44.096874Q52.878124 43.096874 52.878124 41.05Q52.878124 39.128124 52.003124 38.14375Q51.128124 37.14375 49.83125 37.14375Q48.503124 37.14375 47.628124 38.14375Q46.76875 39.128124 46.76875 41.1125ZM63.39375 42.503124L65.1125 42.721874Q64.83125 44.51875 63.659374 45.534374Q62.503124 46.534374 60.8 46.534374Q58.675 46.534374 57.378124 45.14375Q56.08125 43.753124 56.08125 41.159374Q56.08125 39.471874 56.628124 38.221874Q57.190624 36.95625 58.33125 36.33125Q59.471874 35.690624 60.815624 35.690624Q62.503124 35.690624 63.565624 36.55Q64.64375 37.409374 64.95625 38.971874L63.2375 39.2375Q63.003124 38.190624 62.378124 37.675Q61.753124 37.14375 60.878124 37.14375Q59.55 37.14375 58.721874 38.096874Q57.89375 39.05 57.89375 41.096874Q57.89375 43.190624 58.690624 44.14375Q59.4875 45.08125 60.784374 45.08125Q61.815624 45.08125 62.503124 44.45625Q63.20625 43.815624 63.39375 42.503124ZM66.62813 46.3L66.62813 31.9875L68.39375 31.9875L68.39375 40.14375L72.55 35.925L74.81563 35.925L70.8625 39.76875L75.22188 46.3L73.05 46.3L69.62813 41.003124L68.39375 42.190624L68.39375 46.3L66.62813 46.3ZM76.62813 34.003124L76.62813 31.9875L78.39375 31.9875L78.39375 34.003124L76.62813 34.003124ZM76.62813 46.3L76.62813 35.925L78.39375 35.925L78.39375 46.3L76.62813 46.3ZM80.6125 46.3L80.6125 35.925L82.20625 35.925L82.20625 37.409374Q83.34688 35.690624 85.50313 35.690624Q86.44063 35.690624 87.22188 36.034374Q88.01875 36.3625 88.40938 36.909374Q88.8 37.45625 88.95625 38.20625Q89.05 38.70625 89.05 39.925L89.05 46.3L87.28438 46.3L87.28438 39.9875Q87.28438 38.909374 87.08125 38.378124Q86.87813 37.846874 86.34688 37.534374Q85.83125 37.221874 85.12813 37.221874Q84.00313 37.221874 83.19063 37.940624Q82.37813 38.64375 82.37813 40.628124L82.37813 46.3L80.6125 46.3ZM90.3 47.159374L92.00313 47.409374Q92.1125 48.20625 92.59688 48.565624Q93.25313 49.05 94.39375 49.05Q95.6125 49.05 96.26875 48.565624Q96.94063 48.08125 97.175 47.20625Q97.31563 46.659374 97.3 44.940624Q96.14375 46.3 94.425 46.3Q92.28438 46.3 91.1125 44.753124Q89.94063 43.20625 89.94063 41.05Q89.94063 39.565624 90.47188 38.315624Q91.01875 37.065624 92.03438 36.378124Q93.06563 35.690624 94.44063 35.690624Q96.26875 35.690624 97.47188 37.175L97.47188 35.925L99.08125 35.925L99.08125 44.89375Q99.08125 47.315624 98.58125 48.315624Q98.09688 49.33125 97.01875 49.909374Q95.95625 50.503124 94.39375 50.503124Q92.55 50.503124 91.39375 49.675Q90.25313 48.846874 90.3 47.159374ZM91.75313 40.925Q91.75313 42.971874 92.56563 43.909374Q93.37813 44.846874 94.59688 44.846874Q95.8 44.846874 96.6125 43.909374Q97.44063 42.971874 97.44063 40.9875Q97.44063 39.08125 96.59688 38.1125Q95.75313 37.14375 94.56563 37.14375Q93.39375 37.14375 92.56563 38.096874Q91.75313 39.05 91.75313 40.925ZM114.72188 42.95625L116.53438 43.190624Q116.1125 44.76875 114.94063 45.659374Q113.78438 46.534374 111.97188 46.534374Q109.70625 46.534374 108.3625 45.14375Q107.03438 43.7375 107.03438 41.20625Q107.03438 38.58125 108.37813 37.14375Q109.72188 35.690624 111.87813 35.690624Q113.95625 35.690624 115.26875 37.1125Q116.59688 38.51875 116.59688 41.096874Q116.59688 41.253124 116.58125 41.565624L108.84688 41.565624Q108.94063 43.26875 109.81563 44.175Q110.69063 45.08125 111.9875 45.08125Q112.95625 45.08125 113.62813 44.58125Q114.31563 44.065624 114.72188 42.95625ZM108.94063 40.1125L114.7375 40.1125Q114.62813 38.815624 114.08125 38.159374Q113.2375 37.14375 111.89375 37.14375Q110.69063 37.14375 109.8625 37.95625Q109.03438 38.753124 108.94063 40.1125ZM125.39375 42.503124L127.1125 42.721874Q126.83125 44.51875 125.65938 45.534374Q124.50313 46.534374 122.8 46.534374Q120.675 46.534374 119.37813 45.14375Q118.08125 43.753124 118.08125 41.159374Q118.08125 39.471874 118.62813 38.221874Q119.19063 36.95625 120.33125 36.33125Q121.47188 35.690624 122.81563 35.690624Q124.50313 35.690624 125.56563 36.55Q126.64375 37.409374 126.95625 38.971874L125.2375 39.2375Q125.00313 38.190624 124.37813 37.675Q123.75313 37.14375 122.87813 37.14375Q121.55 37.14375 120.72188 38.096874Q119.89375 39.05 119.89375 41.096874Q119.89375 43.190624 120.69063 44.14375Q121.4875 45.08125 122.78438 45.08125Q123.81563 45.08125 124.50313 44.45625Q125.20625 43.815624 125.39375 42.503124ZM128.6125 46.3L128.6125 31.9875L130.37813 31.9875L130.37813 37.1125Q131.6125 35.690624 133.4875 35.690624Q134.62813 35.690624 135.47188 36.14375Q136.33125 36.596874 136.69063 37.409374Q137.06563 38.20625 137.06563 39.721874L137.06563 46.3L135.31563 46.3L135.31563 39.721874Q135.31563 38.409374 134.7375 37.815624Q134.15938 37.20625 133.12813 37.20625Q132.34688 37.20625 131.64375 37.6125Q130.95625 38.01875 130.65938 38.721874Q130.37813 39.409374 130.37813 40.628124L130.37813 46.3L128.6125 46.3ZM137.97188 41.1125Q137.97188 38.2375 139.56563 36.846874Q140.90938 35.690624 142.83125 35.690624Q144.97188 35.690624 146.31563 37.096874Q147.675 38.503124 147.675 40.971874Q147.675 42.971874 147.08125 44.128124Q146.4875 45.26875 145.33125 45.909374Q144.19063 46.534374 142.83125 46.534374Q140.64375 46.534374 139.3 45.14375Q137.97188 43.7375 137.97188 41.1125ZM139.76875 41.1125Q139.76875 43.1125 140.62813 44.096874Q141.50313 45.08125 142.83125 45.08125Q144.14375 45.08125 145.00313 44.096874Q145.87813 43.096874 145.87813 41.05Q145.87813 39.128124 145.00313 38.14375Q144.12813 37.14375 142.83125 37.14375Q141.50313 37.14375 140.62813 38.14375Q139.76875 39.128124 139.76875 41.1125ZM154.90938 43.20625L156.65938 42.925Q156.8 43.971874 157.47188 44.534374Q158.14375 45.08125 159.34688 45.08125Q160.55 45.08125 161.12813 44.596874Q161.72188 44.096874 161.72188 43.440624Q161.72188 42.846874 161.20625 42.503124Q160.84688 42.26875 159.40938 41.909374Q157.47188 41.409374 156.72188 41.065624Q155.9875 40.70625 155.59688 40.08125Q155.20625 39.440624 155.20625 38.675Q155.20625 37.9875 155.51875 37.39375Q155.84688 36.8 156.39375 36.409374Q156.8 36.1125 157.50313 35.909374Q158.22188 35.690624 159.03438 35.690624Q160.25313 35.690624 161.175 36.05Q162.09688 36.39375 162.53438 37.003124Q162.97188 37.596874 163.14375 38.596874L161.425 38.83125Q161.3 38.034374 160.7375 37.596874Q160.175 37.14375 159.15938 37.14375Q157.94063 37.14375 157.425 37.55Q156.90938 37.940624 156.90938 38.471874Q156.90938 38.815624 157.12813 39.096874Q157.33125 39.378124 157.8 39.565624Q158.06563 39.659374 159.34688 40.003124Q161.22188 40.503124 161.95625 40.83125Q162.69063 41.14375 163.1125 41.753124Q163.53438 42.346874 163.53438 43.253124Q163.53438 44.128124 163.01875 44.909374Q162.50313 45.690624 161.53438 46.1125Q160.56563 46.534374 159.34688 46.534374Q157.33125 46.534374 156.26875 45.690624Q155.20625 44.846874 154.90938 43.20625ZM172.72188 42.95625L174.53438 43.190624Q174.1125 44.76875 172.94063 45.659374Q171.78438 46.534374 169.97188 46.534374Q167.70625 46.534374 166.3625 45.14375Q165.03438 43.7375 165.03438 41.20625Q165.03438 38.58125 166.37813 37.14375Q167.72188 35.690624 169.87813 35.690624Q171.95625 35.690624 173.26875 37.1125Q174.59688 38.51875 174.59688 41.096874Q174.59688 41.253124 174.58125 41.565624L166.84688 41.565624Q166.94063 43.26875 167.81563 44.175Q168.69063 45.08125 169.9875 45.08125Q170.95625 45.08125 171.62813 44.58125Q172.31563 44.065624 172.72188 42.95625ZM166.94063 40.1125L172.7375 40.1125Q172.62813 38.815624 172.08125 38.159374Q171.2375 37.14375 169.89375 37.14375Q168.69063 37.14375 167.8625 37.95625Q167.03438 38.753124 166.94063 40.1125ZM176.59688 46.3L176.59688 35.925L178.175 35.925L178.175 37.503124Q178.78438 36.39375 179.3 36.05Q179.81563 35.690624 180.425 35.690624Q181.31563 35.690624 182.2375 36.253124L181.62813 37.89375Q180.9875 37.503124 180.34688 37.503124Q179.76875 37.503124 179.3 37.8625Q178.84688 38.20625 178.64375 38.815624Q178.3625 39.753124 178.3625 40.8625L178.3625 46.3L176.59688 46.3ZM186.50313 46.3L182.55 35.925L184.40938 35.925L186.64375 42.14375Q187.00313 43.14375 187.3 44.221874Q187.53438 43.409374 187.95625 42.253124L190.25313 35.925L192.06563 35.925L188.14375 46.3L186.50313 46.3ZM199.72188 42.95625L201.53438 43.190624Q201.1125 44.76875 199.94063 45.659374Q198.78438 46.534374 196.97188 46.534374Q194.70625 46.534374 193.3625 45.14375Q192.03438 43.7375 192.03438 41.20625Q192.03438 38.58125 193.37813 37.14375Q194.72188 35.690624 196.87813 35.690624Q198.95625 35.690624 200.26875 37.1125Q201.59688 38.51875 201.59688 41.096874Q201.59688 41.253124 201.58125 41.565624L193.84688 41.565624Q193.94063 43.26875 194.81563 44.175Q195.69063 45.08125 196.9875 45.08125Q197.95625 45.08125 198.62813 44.58125Q199.31563 44.065624 199.72188 42.95625ZM193.94063 40.1125L199.7375 40.1125Q199.62813 38.815624 199.08125 38.159374Q198.2375 37.14375 196.89375 37.14375Q195.69063 37.14375 194.8625 37.95625Q194.03438 38.753124 193.94063 40.1125ZM203.59688 46.3L203.59688 35.925L205.175 35.925L205.175 37.503124Q205.78438 36.39375 206.3 36.05Q206.81563 35.690624 207.425 35.690624Q208.31563 35.690624 209.2375 36.253124L208.62813 37.89375Q207.9875 37.503124 207.34688 37.503124Q206.76875 37.503124 206.3 37.8625Q205.84688 38.20625 205.64375 38.815624Q205.3625 39.753124 205.3625 40.8625L205.3625 46.3L203.59688 46.3Z" fill-rule="nonzero"/></svg>